<svg width="20" height="20" viewBox="0 0 20 20" fill="none" xmlns="http://www.w3.org/2000/svg">
<path fill-rule="evenodd" clip-rule="evenodd" d="M13.6041 12.4158L18.0875 16.8992C18.2451 17.0569 18.3335 17.2707 18.3335 17.4936C18.3334 17.7166 18.2447 17.9303 18.0871 18.0879C17.9294 18.2455 17.7155 18.334 17.4926 18.3339C17.2697 18.3338 17.0559 18.2452 16.8983 18.0875L12.415 13.6042C11.0747 14.6422 9.38937 15.1307 7.70174 14.9703C6.01412 14.8098 4.451 14.0125 3.33037 12.7405C2.20975 11.4685 1.61579 9.81734 1.66935 8.12295C1.7229 6.42856 2.41993 4.81821 3.61864 3.61949C4.81735 2.42078 6.4277 1.72375 8.12209 1.6702C9.81648 1.61665 11.4676 2.2106 12.7396 3.33123C14.0117 4.45185 14.809 6.01497 14.9694 7.7026C15.1299 9.39022 14.6414 11.0756 13.6033 12.4158H13.6041ZM8.3333 13.3333C9.65938 13.3333 10.9312 12.8065 11.8688 11.8689C12.8065 10.9312 13.3333 9.65941 13.3333 8.33332C13.3333 7.00724 12.8065 5.73547 11.8688 4.79779C10.9312 3.86011 9.65938 3.33332 8.3333 3.33332C7.00722 3.33332 5.73545 3.86011 4.79777 4.79779C3.86009 5.73547 3.3333 7.00724 3.3333 8.33332C3.3333 9.65941 3.86009 10.9312 4.79777 11.8689C5.73545 12.8065 7.00722 13.3333 8.3333 13.3333Z" fill="#00473E"/>
</svg>
