<svg width="18" height="18" viewBox="0 0 18 18" fill="none" xmlns="http://www.w3.org/2000/svg">
<path d="M9.00092 7.02C8.74078 7.02 8.4832 7.07124 8.24286 7.17079C8.00253 7.27034 7.78416 7.41625 7.60021 7.60019C7.41627 7.78414 7.27036 8.00251 7.17081 8.24284C7.07126 8.48318 7.02002 8.74077 7.02002 9.0009C7.02002 9.26104 7.07126 9.51863 7.17081 9.75896C7.27036 9.99929 7.41627 10.2177 7.60021 10.4016C7.78416 10.5856 8.00253 10.7315 8.24286 10.831C8.4832 10.9306 8.74078 10.9818 9.00092 10.9818C9.52629 10.9817 10.0301 10.7729 10.4015 10.4013C10.7729 10.0297 10.9815 9.52582 10.9814 9.00045C10.9813 8.47508 10.7724 7.97128 10.4009 7.59988C10.0293 7.22847 9.52539 7.01988 9.00002 7.02H9.00092ZM9.00092 4.68C9.26094 4.67988 9.51839 4.62855 9.75856 4.52894C9.99874 4.42932 10.217 4.28338 10.4007 4.09944C10.5845 3.91549 10.7303 3.69715 10.8296 3.45688C10.929 3.21661 10.9801 2.95912 10.98 2.6991C10.9799 2.43908 10.9286 2.18164 10.829 1.94146C10.7293 1.70128 10.5834 1.48307 10.3995 1.29929C10.2155 1.11552 9.99717 0.969771 9.7569 0.870375C9.51663 0.77098 9.25914 0.719883 8.99912 0.720001C8.47399 0.72024 7.97046 0.929076 7.59931 1.30057C7.22816 1.67206 7.01978 2.17577 7.02002 2.7009C7.02026 3.22603 7.22909 3.72956 7.60058 4.10071C7.97208 4.47186 8.47579 4.68024 9.00092 4.68ZM9.00092 13.32C8.47555 13.32 7.9717 13.5287 7.60021 13.9002C7.22872 14.2717 7.02002 14.7755 7.02002 15.3009C7.02002 15.8263 7.22872 16.3301 7.60021 16.7016C7.9717 17.0731 8.47555 17.2818 9.00092 17.2818C9.52629 17.2818 10.0301 17.0731 10.4016 16.7016C10.7731 16.3301 10.9818 15.8263 10.9818 15.3009C10.9818 14.7755 10.7731 14.2717 10.4016 13.9002C10.0301 13.5287 9.52629 13.32 9.00092 13.32Z" fill="#00473E"/>
</svg>
